<svg width="80" height="80" viewBox="0 0 80 80" fill="none" xmlns="http://www.w3.org/2000/svg">
<path d="M22.3332 60.9669C23.6332 62.2669 25.7332 62.2669 27.0332 60.9669L39.9999 48.0669L52.9332 61.0002C53.5565 61.6235 54.4018 61.9736 55.2832 61.9736C56.1646 61.9736 57.01 61.6235 57.6332 61.0002C58.2565 60.3769 58.6066 59.5316 58.6066 58.6502C58.6066 57.7688 58.2565 56.9235 57.6332 56.3002L42.3332 41.0002C42.0248 40.6912 41.6585 40.446 41.2553 40.2788C40.852 40.1115 40.4198 40.0254 39.9832 40.0254C39.5466 40.0254 39.1144 40.1115 38.7111 40.2788C38.3079 40.446 37.9416 40.6912 37.6332 41.0002L22.3332 56.2669C22.0242 56.5752 21.779 56.9415 21.6118 57.3448C21.4445 57.748 21.3584 58.1803 21.3584 58.6169C21.3584 59.0534 21.4445 59.4857 21.6118 59.889C21.779 60.2922 22.0242 60.6585 22.3332 60.9669Z" fill="#FFBF46"/>
<path d="M22.3332 39.0001C23.6332 40.3001 25.7332 40.3001 27.0332 39.0001L39.9999 26.1001L52.9332 39.0334C53.5565 39.6567 54.4018 40.0068 55.2832 40.0068C56.1646 40.0068 57.01 39.6567 57.6332 39.0334C58.2565 38.4102 58.6066 37.5648 58.6066 36.6834C58.6066 35.802 58.2565 34.9567 57.6332 34.3334L42.3332 19.0334C42.0248 18.7244 41.6585 18.4792 41.2553 18.312C40.852 18.1447 40.4198 18.0586 39.9832 18.0586C39.5466 18.0586 39.1144 18.1447 38.7111 18.312C38.3079 18.4792 37.9416 18.7244 37.6332 19.0334L22.3332 34.3001C22.0242 34.6085 21.779 34.9747 21.6118 35.378C21.4445 35.7812 21.3584 36.2135 21.3584 36.6501C21.3584 37.0866 21.4445 37.5189 21.6118 37.9222C21.779 38.3254 22.0242 38.6917 22.3332 39.0001Z" fill="#FFBF46"/>
</svg>
