<svg width="68" height="80" viewBox="0 0 68 80" fill="none" xmlns="http://www.w3.org/2000/svg">
<path d="M64.6154 0H12.3077C9.04349 0 5.91298 1.2967 3.60484 3.60484C1.2967 5.91298 0 9.04349 0 12.3077V76.9231C0 77.7391 0.324176 78.5218 0.901211 79.0988C1.47825 79.6758 2.26087 80 3.07692 80H58.4615C59.2776 80 60.0602 79.6758 60.6373 79.0988C61.2143 78.5218 61.5385 77.7391 61.5385 76.9231C61.5385 76.107 61.2143 75.3244 60.6373 74.7474C60.0602 74.1703 59.2776 73.8462 58.4615 73.8462H6.15385C6.15385 72.2141 6.8022 70.6488 7.95627 69.4947C9.11034 68.3407 10.6756 67.6923 12.3077 67.6923H64.6154C65.4314 67.6923 66.2141 67.3681 66.7911 66.7911C67.3681 66.2141 67.6923 65.4314 67.6923 64.6154V3.07692C67.6923 2.26087 67.3681 1.47824 66.7911 0.90121C66.2141 0.324175 65.4314 0 64.6154 0ZM55.3846 36.9231L45.5346 29.5385C45.2683 29.3387 44.9444 29.2308 44.6115 29.2308C44.2787 29.2308 43.9548 29.3387 43.6885 29.5385L33.8462 36.9231V6.15385H55.3846V36.9231Z" fill="#292F36"/>
</svg>
