<svg width="40" height="34" viewBox="0 0 40 34" fill="none" xmlns="http://www.w3.org/2000/svg">
<path d="M1.77924 1.54144C0.641735 2.67894 0.641735 4.51644 1.77923 5.65394L13.0667 16.9998L1.75007 28.3164C1.20472 28.8618 0.898345 29.6014 0.898345 30.3727C0.898345 31.1439 1.20472 31.8836 1.75007 32.4289C2.29542 32.9743 3.03508 33.2807 3.80632 33.2807C4.57756 33.2807 5.31722 32.9743 5.86257 32.4289L19.2501 19.0414C19.5204 18.7716 19.735 18.4511 19.8813 18.0983C20.0277 17.7454 20.103 17.3672 20.103 16.9852C20.103 16.6032 20.0277 16.225 19.8813 15.8721C19.735 15.5193 19.5204 15.1988 19.2501 14.9289L5.89174 1.54144C5.62191 1.27105 5.3014 1.05654 4.94856 0.910175C4.59572 0.763813 4.21748 0.688476 3.83549 0.688476C3.4535 0.688476 3.07525 0.763812 2.72241 0.910175C2.36958 1.05654 2.04907 1.27105 1.77924 1.54144Z" fill="#748599"/>
<path d="M20.9999 1.54144C19.8624 2.67894 19.8624 4.51644 20.9999 5.65394L32.2874 16.9998L20.9708 28.3164C20.4254 28.8618 20.119 29.6014 20.119 30.3727C20.119 31.1439 20.4254 31.8836 20.9708 32.4289C21.5161 32.9743 22.2558 33.2807 23.027 33.2807C23.7983 33.2807 24.5379 32.9743 25.0833 32.4289L38.4708 19.0414C38.7412 18.7716 38.9557 18.4511 39.102 18.0983C39.2484 17.7454 39.3237 17.3672 39.3237 16.9852C39.3237 16.6032 39.2484 16.225 39.102 15.8721C38.9557 15.5193 38.7412 15.1988 38.4708 14.9289L25.1124 1.54144C24.8426 1.27105 24.5221 1.05654 24.1693 0.910175C23.8164 0.763813 23.4382 0.688476 23.0562 0.688476C22.6742 0.688476 22.296 0.763812 21.9431 0.910175C21.5903 1.05654 21.2698 1.27105 20.9999 1.54144Z" fill="#748599"/>
</svg>
