<svg width="80" height="80" viewBox="0 0 80 80" fill="none" xmlns="http://www.w3.org/2000/svg">
<path d="M75.5667 0H4.43333C3.26024 0.00872227 2.13766 0.478605 1.30813 1.30813C0.478605 2.13766 0.00872227 3.26024 0 4.43333V75.5667C0.00872227 76.7398 0.478605 77.8623 1.30813 78.6919C2.13766 79.5214 3.26024 79.9913 4.43333 80H42.7333V49.0667H32.3333V36.9667H42.7333V28.0667C42.7333 17.7333 49.0333 12.1 58.3 12.1C61.4 12.1 64.5 12.1 67.6 12.5667V23.3333H61.2333C56.2 23.3333 55.2333 25.7333 55.2333 29.2333V36.9333H67.2333L65.6667 49.0333H55.2333V80H75.5667C76.7398 79.9913 77.8623 79.5214 78.6919 78.6919C79.5214 77.8623 79.9913 76.7398 80 75.5667V4.43333C79.9913 3.26024 79.5214 2.13766 78.6919 1.30813C77.8623 0.478605 76.7398 0.00872227 75.5667 0Z" fill="white"/>
</svg>
