<svg xmlns="http://www.w3.org/2000/svg" version="1.1" xmlns:xlink="http://www.w3.org/1999/xlink" xmlns:svgjs="http://svgjs.com/svgjs" width="87" height="96"><svg width="87" height="96" viewBox="0 0 87 96" fill="none" xmlns="http://www.w3.org/2000/svg">
<path fill-rule="evenodd" clip-rule="evenodd" d="M59.9325 87.3085C70.3887 89.964 81.7438 79.6926 85.2947 64.3666C88.8457 49.0406 83.248 34.4637 72.7918 31.8082C62.3356 29.1527 50.9806 39.4241 47.4296 54.7501C43.8786 70.0761 49.4764 84.653 59.9325 87.3085ZM58.7189 80.7055C66.1876 82.6023 74.5333 74.2514 77.3596 62.0531C80.1859 49.8549 76.4225 38.4286 68.9538 36.5318C61.4851 34.635 53.1394 42.986 50.3131 55.1842C47.4868 67.3825 51.2502 78.8087 58.7189 80.7055Z" fill="white"></path>
<path d="M0 23C0 21.8954 0.895431 21 2 21H58C59.1046 21 60 21.8954 60 23V91C60 93.7614 57.7614 96 55 96H5C2.23858 96 0 93.7614 0 91V23Z" fill="white"></path>
<path fill-rule="evenodd" clip-rule="evenodd" d="M45.811 61.6235C47.8983 62.1468 49.0192 64.3625 48.3357 66.4029L43.4498 80.9891C42.7834 82.9785 40.6483 84.0482 38.5981 83.6027C32.7839 82.3391 26.7521 82.3391 20.9379 83.6027C18.8877 84.0482 16.7526 82.9785 16.0862 80.9891L11.2003 66.4029C10.5168 64.3625 11.6377 62.1468 13.725 61.6235C24.2467 58.9855 35.2893 58.9855 45.811 61.6235ZM29.768 78.8788C30.4762 78.8788 31.0503 76.0084 31.0503 72.4675C31.0503 68.9267 30.4762 66.0563 29.768 66.0563C29.0599 66.0563 28.4858 68.9267 28.4858 72.4675C28.4858 76.0084 29.0599 78.8788 29.768 78.8788ZM24.1468 73.6302C25.9172 76.6966 26.8552 79.4695 26.2419 79.8236C25.6287 80.1777 23.6963 77.9789 21.9259 74.9124C20.1554 71.846 19.2174 69.0731 19.8307 68.719C20.444 68.3649 22.3764 70.5637 24.1468 73.6302ZM33.2943 79.8236C33.9076 80.1777 35.84 77.9789 37.6104 74.9124C39.3808 71.846 40.3189 69.0731 39.7056 68.719C39.0923 68.3649 37.1599 70.5637 35.3895 73.6302C33.6191 76.6966 32.681 79.4695 33.2943 79.8236Z" fill="#E57B2E"></path>
<path fill-rule="evenodd" clip-rule="evenodd" d="M24.7459 44.1654C28.6408 44.1654 31.7983 41.008 31.7983 37.1131C31.7983 35.9956 31.5384 34.9389 31.0758 34C34.3987 34.5182 36.9273 37.15 36.9273 40.3187C36.9273 43.8595 33.7698 46.7299 29.8749 46.7299C27.558 46.7299 25.502 45.7142 24.2164 44.1459C24.3912 44.1588 24.5678 44.1654 24.7459 44.1654Z" fill="#D4E3EC"></path>
<path fill-rule="evenodd" clip-rule="evenodd" d="M36.9273 46.7301C37.6355 46.7301 38.2095 45.2949 38.2095 43.5245C38.2095 41.7541 37.6355 40.3188 36.9273 40.3188C36.883 40.3188 36.8393 40.3245 36.7962 40.3354C36.8732 40.3677 36.9273 40.4438 36.9273 40.5326C36.9273 41.8309 35.8748 42.8834 34.5765 42.8834L24.1048 42.8834H24.1047C23.3966 42.8834 22.8225 44.3186 22.8225 46.089C22.8225 47.8594 23.3966 49.2946 24.1047 49.2946L24.1048 49.2946L24.1065 49.2946H36.9273V49.2946L36.9273 46.7301ZM36.9273 49.2946H24.1048C24.1048 47.8783 25.2529 46.7301 26.6693 46.7301H36.9273V49.2946Z" fill="#FFBF46"></path>
<path fill-rule="evenodd" clip-rule="evenodd" d="M38.0493 43.4751C38.0493 45.2728 36.592 46.73 34.7943 46.73L21.7006 46.73H21.7005C20.1957 46.73 18.9758 48.7393 18.9758 51.2179C18.9758 53.6965 20.1957 55.7058 21.7005 55.7058H21.7006C21.7006 53.5813 23.4228 51.8591 25.5473 51.8591L38.0493 51.8591C39.5541 51.859 40.774 49.8498 40.774 47.3712C40.774 44.8926 39.5541 42.8833 38.0492 42.8833C37.9227 42.8833 37.7981 42.8975 37.6762 42.925C37.8948 43.012 38.0493 43.2255 38.0493 43.4751Z" fill="#D4E3EC"></path>
<path fill-rule="evenodd" clip-rule="evenodd" d="M40.774 58.2702C42.8985 58.2702 44.6208 55.6869 44.6208 52.5001C44.6208 49.3134 42.8985 46.73 40.774 46.73C40.6008 46.73 40.4303 46.7472 40.2631 46.7804C40.5616 46.8929 40.774 47.1812 40.774 47.5191C40.774 49.9159 38.831 51.859 36.4341 51.859L18.9758 51.859H18.9757C16.1431 51.859 13.8467 54.4424 13.8467 57.6291C13.8467 60.8159 16.1431 63.3993 18.9757 63.3993C18.9758 60.5666 21.2721 58.2702 24.1048 58.2702L40.774 58.2702Z" fill="#FFBF46"></path>
<path fill-rule="evenodd" clip-rule="evenodd" d="M44.6208 52.3932C44.6208 55.6389 41.9896 58.2701 38.7438 58.2701L16.4113 58.2701V55.7056H16.4113V58.2701C12.8704 58.2701 10 60.8535 10 64.0403C10 67.227 12.8704 69.8104 16.4113 69.8104C16.4113 66.9777 18.7076 64.6814 21.5403 64.6814L44.6208 64.6814C47.4535 64.6814 49.7498 61.811 49.7498 58.2701C49.7498 54.7293 47.4535 51.8589 44.6208 51.8589C44.4883 51.8589 44.3569 51.8652 44.2269 51.8775C44.4539 51.9392 44.6208 52.1467 44.6208 52.3932Z" fill="#D4E3EC"></path>
<path d="M15.1647 1C21.7556 9.23529 7.91487 7.03922 15.1647 15" stroke="white" stroke-width="2" stroke-linecap="round"></path>
<path d="M30.1647 1C36.7556 9.23529 22.9149 7.03922 30.1647 15" stroke="white" stroke-width="2" stroke-linecap="round"></path>
<path d="M45.1647 1C51.7556 9.23529 37.9149 7.03922 45.1647 15" stroke="white" stroke-width="2" stroke-linecap="round"></path>
</svg><style>@media (prefers-color-scheme: light) { :root { filter: contrast(1) brightness(0.9); } }
@media (prefers-color-scheme: dark) { :root { filter: contrast(1) brightness(1); } }
</style></svg>