<svg width="81" height="58" viewBox="0 0 81 58" fill="none" xmlns="http://www.w3.org/2000/svg">
<path d="M48.1151 56.1343C47.0804 55.0996 46.5837 53.8493 46.6251 52.3834C46.6665 50.9175 47.2063 49.6672 48.2445 48.6325L62.8601 34.0169H5.17369C3.70781 34.0169 2.47821 33.5202 1.48486 32.5269C0.491517 31.5335 -0.00343121 30.3056 1.79019e-05 28.8432C1.79019e-05 27.3773 0.496691 26.1477 1.49004 25.1544C2.48338 24.161 3.71126 23.6661 5.17369 23.6695H62.8601L48.1151 8.92458C47.0804 7.88984 46.563 6.66023 46.563 5.23575C46.563 3.81127 47.0804 2.58338 48.1151 1.5521C49.1499 0.517365 50.3795 0 51.804 0C53.2285 0 54.4563 0.517365 55.4876 1.5521L79.1572 25.2216C79.6745 25.739 80.0419 26.2995 80.2592 26.9031C80.4764 27.5067 80.5834 28.1534 80.5799 28.8432C80.5799 29.533 80.4713 30.1797 80.254 30.7833C80.0367 31.3869 79.6711 31.9474 79.1572 32.4648L55.3583 56.2636C54.4098 57.2122 53.225 57.6864 51.804 57.6864C50.3829 57.6864 49.1533 57.169 48.1151 56.1343Z" fill="#FFBF46"/>
</svg>
