<svg width="295" height="312" viewBox="0 0 295 312" fill="none" xmlns="http://www.w3.org/2000/svg">
<path d="M272.898 261.445L246.486 235.034C239.2 227.748 227.178 227.748 219.892 235.034C212.606 242.32 212.606 254.342 219.892 261.628L225.903 267.638L220.803 266.546C216.796 265.817 212.788 268.003 211.513 271.828C210.785 274.014 211.149 276.199 212.06 278.203C213.153 280.025 214.974 281.482 217.16 282.21L247.579 289.679L272.351 264.906C276.905 269.46 280.001 271.099 282.551 271.099C283.644 271.099 284.555 270.553 285.284 269.824C285.466 269.642 285.648 269.46 286.012 269.096C287.287 267.456 287.287 264.906 286.012 263.267C284.191 260.717 279.819 258.895 272.898 261.445ZM270.712 262.903L247.032 286.582L218.071 279.478C215.156 278.75 213.517 276.017 214.245 273.103C214.974 270.553 217.524 268.731 220.256 269.278L229.364 271.099C229.91 271.281 230.639 270.917 231.185 270.371L231.55 269.278L222.078 259.806C215.885 253.613 216.067 243.23 222.442 237.22C228.635 231.026 238.653 231.209 244.664 237.22L270.712 262.903ZM283.098 267.274C282.187 268.185 280.73 268.185 279.819 267.274C278.908 266.363 278.908 264.906 279.819 263.995C280.73 263.085 282.187 263.085 283.098 263.995C284.009 264.906 284.009 266.363 283.098 267.274Z" fill="#748599" fill-opacity="0.5"/>
<path d="M249.036 265.635C247.943 266.728 247.943 268.549 249.036 269.642C250.129 270.735 251.95 270.735 253.043 269.642C254.136 268.549 254.136 266.728 253.043 265.635C251.95 264.542 250.129 264.542 249.036 265.635Z" fill="#748599" fill-opacity="0.5"/>
<path d="M241.75 272.921C240.657 274.014 240.657 275.836 241.75 276.928C242.843 278.021 244.664 278.021 245.757 276.928C246.85 275.836 246.85 274.014 245.757 272.921C244.846 271.646 242.843 271.828 241.75 272.921Z" fill="#748599" fill-opacity="0.5"/>
<path d="M256.322 258.349C255.229 259.442 255.229 261.263 256.322 262.356C257.415 263.449 259.236 263.449 260.329 262.356C261.422 261.263 261.422 259.442 260.329 258.349C259.236 257.256 257.415 257.256 256.322 258.349Z" fill="#748599" fill-opacity="0.5"/>
<path d="M239.564 256.163C240.657 255.07 240.657 253.249 239.564 252.156C238.471 251.063 236.65 251.063 235.557 252.156C234.464 253.249 234.464 255.07 235.557 256.163C236.65 257.256 238.471 257.256 239.564 256.163Z" fill="#748599" fill-opacity="0.5"/>
<path d="M238.653 262.538C237.56 263.631 237.56 265.453 238.653 266.546C239.746 267.639 241.567 267.639 242.66 266.546C243.753 265.453 243.753 263.631 242.66 262.538C241.567 261.445 239.746 261.445 238.653 262.538Z" fill="#748599" fill-opacity="0.5"/>
<path d="M245.939 255.252C244.846 256.345 244.846 258.167 245.939 259.26C247.032 260.352 248.854 260.352 249.946 259.26C251.039 258.167 251.039 256.345 249.946 255.252C248.854 254.159 247.032 254.159 245.939 255.252Z" fill="#748599" fill-opacity="0.5"/>
<path d="M275.036 37.4226C274.852 36.5038 274.302 35.5852 273.567 34.8506C272.098 33.3813 270.076 32.8312 268.054 33.3839C267.871 32.0975 267.321 30.8114 266.403 29.8931C264.933 28.4237 262.912 27.8737 260.89 28.4263C260.891 26.9561 260.157 25.4863 258.871 24.5682C256.483 22.5481 252.991 22.7342 250.968 24.7571L249.129 26.5961C246.006 24.5765 241.779 24.7629 239.021 27.5214L234.607 31.935C234.24 30.8326 233.689 29.914 232.955 29.1794C230.935 27.1591 227.994 26.7934 225.604 28.4489C224.685 27.8982 223.583 27.5313 222.297 27.3484C220.643 27.5332 219.356 28.0854 218.069 29.0051L220.089 31.0254C221.008 30.1059 222.479 29.7374 223.581 30.4718C222.293 32.8618 222.659 35.8021 224.495 37.6387C225.23 38.3734 226.149 38.9242 227.435 39.1071L223.021 43.5207C220.263 46.2792 219.893 50.3226 222.096 53.6293L220.257 55.4683C218.05 57.6751 218.048 61.3507 220.252 63.5547C221.17 64.473 222.64 65.2072 223.926 65.3901C223.742 65.9416 223.742 66.3092 223.742 66.6767C223.74 69.6172 225.944 72.1888 229.068 72.3706C228.884 72.922 228.883 73.2896 228.699 73.8411C228.698 75.3113 229.249 76.965 230.351 78.067C231.085 78.8016 232.004 79.3524 232.923 79.5356L228.877 83.5814L229.795 84.4997C234.754 89.4586 242.657 89.2698 247.438 84.4884L279.988 51.9382C284.954 46.9729 284.775 39.0704 280 34.2951L279.081 33.3768L275.036 37.4226ZM264.196 31.7323C265.298 32.8343 265.297 34.6721 264.194 35.7755L246.539 53.4298L242.315 49.2056L259.969 31.5512C261.256 30.6315 263.094 30.6303 264.196 31.7323ZM252.805 26.5937C253.908 25.4903 255.562 25.3055 256.848 26.2235C257.95 27.3255 258.317 29.1631 257.029 30.4504C257.029 30.4504 257.029 30.4504 256.846 30.6343L240.295 47.1853C238.459 44.2459 238.645 40.3864 241.219 37.8118L252.621 26.41L252.805 26.5937ZM226.705 31.0212C227.992 29.7339 229.83 29.7327 231.116 31.0184C232.401 32.304 232.4 34.1418 231.113 35.4291C229.826 36.7164 227.988 36.7176 226.702 35.4319C225.417 34.1463 225.418 32.3085 226.705 31.0212ZM225.037 52.5247C223.017 50.5044 223.019 47.1963 225.042 45.1734L241.041 29.1742C242.696 27.5191 245.086 27.3338 247.107 28.2514L239.567 35.7913C235.705 39.6532 235.517 46.0856 239.558 50.1262L246.169 56.7382C246.537 57.1055 246.904 57.8404 246.72 58.3918C246.719 59.127 246.535 59.6784 246.167 60.0462C245.8 60.414 245.248 60.5982 244.697 60.7823C243.961 60.7828 243.594 60.4154 243.227 60.0481L236.431 53.2525L234.408 55.2754L238.082 58.9487C239 59.867 238.999 61.3373 238.08 62.2568C237.712 62.6246 237.16 62.8087 236.425 62.8092C235.69 62.8097 235.139 62.6262 234.955 62.075L225.037 52.5247ZM221.357 59.5108C221.358 58.7757 221.726 58.0403 222.277 57.4886L224.116 55.6496L228.341 59.8739L226.502 61.7129C225.398 62.8163 223.56 62.8174 222.458 61.7155C221.724 60.9808 221.357 60.2459 221.357 59.5108ZM226.499 66.4912C226.499 65.7561 226.867 65.0207 227.419 64.469L230.177 61.7105L232.749 64.2818C233.3 64.8328 234.034 65.1999 234.769 65.567L231.643 68.6933C230.54 69.7967 228.702 69.7978 227.6 68.6959C226.865 67.9612 226.498 67.2263 226.499 66.4912ZM231.64 73.8392C231.64 72.7365 231.825 72.185 232.376 71.6333L241.387 62.6222C242.306 63.173 243.224 63.7238 244.327 63.723C245.797 63.7221 247.084 63.1699 248.004 62.2504C248.923 61.3309 249.475 60.0441 249.476 58.5739C249.477 57.4712 249.11 56.3687 248.559 55.4502L267.317 36.6924C268.421 35.589 270.258 35.5878 271.36 36.6898C271.911 37.2408 272.278 37.9757 272.278 38.7108C272.278 39.4459 271.91 40.1813 271.358 40.733L236.417 75.6739C235.314 76.7773 233.476 76.7785 232.374 75.6765C232.006 75.3092 231.639 74.5743 231.64 73.8392ZM280.914 41.462L237.146 85.2301C235.676 84.8635 234.206 84.4969 233.104 83.3949L279.263 37.2361C279.997 38.3383 280.547 39.992 280.914 41.462Z" fill="#748599" fill-opacity="0.5"/>
<path d="M274.235 160.517L260.332 146.614C262.154 144.06 262.148 140.407 259.769 138.029L259.586 137.846L265.056 132.377C265.968 131.465 266.148 129.822 265.05 128.724L264.867 128.541C263.952 127.627 262.308 127.441 261.214 128.535L255.745 134.005C253.367 131.992 250.08 131.986 247.709 133.626L239.111 125.028C234.537 120.455 227.232 120.442 222.674 125L209.729 137.945C204.807 142.868 204.82 150.903 209.759 155.843L217.809 163.892C216.169 166.263 216.175 169.55 218.187 171.928L212.718 177.398C211.806 178.309 211.626 179.953 212.724 181.05L212.907 181.233C213.822 182.148 215.466 182.333 216.56 181.239L222.029 175.77L222.212 175.953C224.59 178.331 228.06 178.519 230.796 176.515L232.626 178.344C236.467 182.186 242.677 182.196 246.506 178.368C249.24 175.633 253.623 175.64 256.367 178.384C261.672 183.324 269.889 182.79 274.629 177.685C279.004 172.944 278.809 165.456 274.235 160.517ZM219.632 162.069L211.583 154.019C209.205 151.641 208.103 147.987 209.193 144.701L217.425 152.933L219.43 150.928L210.284 141.781C210.648 141.051 211.195 140.504 211.742 139.957L224.686 127.013C228.15 123.548 233.629 123.558 237.105 127.033L245.886 135.814L219.632 162.069ZM229.149 174.138C227.69 175.597 225.316 175.775 223.67 174.129L220.194 170.653C218.731 169.189 218.726 166.633 220.185 165.174L248.992 136.368C250.45 134.909 253.007 134.913 254.47 136.377L257.946 139.853C259.41 141.316 259.596 143.69 258.138 145.149L229.149 174.138ZM258.008 176.743C254.167 172.902 247.957 172.891 244.129 176.72C241.394 179.455 237.011 179.447 234.267 176.703L232.437 174.874L258.691 148.62L272.595 162.523C275.156 165.084 276.075 168.556 275.167 172.024L263.642 160.499L261.637 162.505L274.077 174.944C273.713 175.674 272.983 176.403 272.436 176.95C268.425 180.596 262.033 180.768 258.008 176.743Z" fill="#748599" fill-opacity="0.5"/>
<path d="M59.4852 258.29L61.3067 260.111L58.5745 262.843L61.1245 269.765L59.3031 271.587L57.4816 267.944L21.2338 304.191L31.252 308.745L62.3996 277.598L60.5781 273.955L64.2211 270.312L61.671 263.39L63.1282 261.933L64.9497 263.754L77.518 251.186L72.0535 245.721L59.4852 258.29ZM58.2102 274.865L28.5198 304.556L26.334 303.463L57.1173 272.679L58.2102 274.865ZM70.9606 254.1L65.314 259.747L63.6746 258.108L69.3213 252.461L70.9606 254.1Z" fill="#748599" fill-opacity="0.5"/>
<path d="M27.063 289.255L29.0666 287.252C28.7023 286.887 28.338 286.159 28.1559 285.612C27.7916 283.062 25.9701 281.241 23.6021 281.059C22.3271 280.876 21.4163 279.966 21.2342 278.691C21.052 277.416 20.5056 276.505 19.5948 275.594L17.5912 277.598C17.9555 277.962 18.3198 278.691 18.5019 279.237C18.8662 281.787 20.6877 283.609 23.0557 283.791C24.3307 283.973 25.2415 284.884 25.4236 286.159C25.6058 287.434 26.1522 288.345 27.063 289.255Z" fill="#748599" fill-opacity="0.5"/>
<path d="M33.0737 283.245L35.0774 281.241C34.7131 280.877 34.3488 280.148 34.1666 279.602C33.8023 277.052 31.9808 275.23 29.6129 275.048C28.3378 274.866 27.4271 273.955 27.2449 272.68C27.0628 271.405 26.5163 270.494 25.6056 269.583L23.6019 271.587C23.9662 271.951 24.3305 272.68 24.5127 273.226C24.877 275.776 26.6985 277.598 29.0664 277.78C30.3415 277.962 31.2522 278.873 31.4344 280.148C31.6165 281.423 32.163 282.334 33.0737 283.245Z" fill="#748599" fill-opacity="0.5"/>
<path d="M39.0847 277.234L41.0883 275.23C40.724 274.866 40.3597 274.137 40.1776 273.591C39.8133 271.041 37.9918 269.219 35.6238 269.037C34.3488 268.855 33.4381 267.944 33.2559 266.669C33.0738 265.394 32.5273 264.483 31.6166 263.572L29.7951 265.394C30.1594 265.758 30.5237 266.487 30.7058 267.033C31.0701 269.583 32.8916 271.405 35.2595 271.587C36.5346 271.769 37.4453 272.68 37.6275 273.955C37.6275 275.412 38.1739 276.323 39.0847 277.234Z" fill="#748599" fill-opacity="0.5"/>
<path d="M51.3224 195.496C58.2441 196.589 64.8015 192.217 66.4408 185.478L66.8051 184.02L40.3935 176.916L40.0292 178.374C39.4827 180.013 39.4827 181.835 39.6649 183.838L30.3752 174.549C34.5647 175.095 38.9363 173.638 41.8506 170.723C43.1257 169.448 44.2186 167.627 44.9472 165.805L50.5938 168.902L53.5082 163.802L55.5119 165.077L53.8725 168.173L73.1803 179.102C76.459 180.924 80.6485 179.649 82.47 176.37C84.2915 173.091 83.0164 168.902 79.9199 166.898L62.98 157.244L25.6394 136.297L24.7286 137.937C22.725 141.762 22.1785 146.315 24 150.323C23.6357 150.687 23.0893 150.869 22.5428 151.416C19.4463 154.512 18.1712 158.702 18.7177 162.891L9.24591 153.419L1.59563 161.069L51.5046 210.978L59.1548 203.328L51.3224 195.496ZM78.6448 169.631C80.6485 170.906 81.1949 173.273 80.2842 175.277C79.7377 176.188 79.0091 176.916 77.7341 177.099C76.6412 177.463 75.5483 177.099 74.4554 176.734L63.5264 170.541L67.5337 163.255L78.6448 169.631ZM65.1658 161.98L61.1585 169.266L57.8798 167.445L60.612 162.891L62.0692 160.341L65.1658 161.98ZM42.5792 180.559L48.5902 182.199C48.0437 184.567 49.5009 187.117 52.2332 187.663C54.6011 188.21 56.7869 186.753 57.5155 184.567L63.5264 186.206C61.1585 191.853 54.9654 194.403 49.3188 192.035C46.9508 191.124 45.3115 189.485 44.0364 187.481C42.5792 185.295 42.0328 182.927 42.5792 180.559ZM26.7323 139.94L59.5191 158.519L57.1512 162.709L52.7796 160.159L49.8652 165.259L45.8579 163.073C47.133 155.605 42.0328 148.683 34.7468 147.59C32.0146 147.044 29.2823 147.59 26.5501 148.865C25.4572 145.951 25.6394 142.855 26.7323 139.94ZM24.5465 153.419C28.7359 149.23 35.6576 149.23 39.847 153.419C44.0364 157.609 44.0364 164.53 39.847 168.72C35.6576 172.909 28.7359 172.909 24.5465 168.72C20.357 164.53 20.357 157.609 24.5465 153.419ZM51.5046 206.971L5.60292 161.069L7.42441 159.248L53.3261 205.15L51.5046 206.971Z" fill="#748599" fill-opacity="0.5"/>
<path d="M28.9181 164.348C30.7289 166.159 33.6647 166.159 35.4755 164.348C37.2862 162.538 37.2862 159.602 35.4755 157.791C33.6647 155.98 30.7289 155.98 28.9181 157.791C27.1073 159.602 27.1073 162.538 28.9181 164.348Z" fill="#748599" fill-opacity="0.5"/>
<path d="M38.0516 71.3624L36.2301 69.5409L64.2811 41.4899L50.4377 27.6465C47.7055 24.9143 43.5161 24.7321 40.7838 27.1001L16.9223 46.2257L14.5543 43.8578L5.62899 52.7831L7.99693 55.1511C6.17544 59.5226 7.08619 64.4407 10.547 67.9015L24.2082 81.5627L28.0334 77.7376L29.8549 79.5591L32.9514 76.4625L37.323 80.8341L34.4086 83.7485C32.7692 85.3879 32.9514 87.7558 34.4086 89.213L46.6126 101.417C48.2519 103.056 50.6199 102.874 52.0771 101.417L59.7274 93.7667C61.3667 92.1274 61.1845 89.7594 59.7274 88.3022L47.5233 76.0982C45.884 74.4589 43.5161 74.641 42.0589 76.0982L39.3266 78.8305L34.955 74.4589L38.0516 71.3624ZM12.5507 65.8979C9.08983 62.437 9.08983 56.9726 12.5507 53.5117C12.7328 53.3296 12.915 53.1474 13.2793 52.7831L42.6053 29.2859C44.4268 27.8287 47.159 28.0108 48.7984 29.6501L55.7201 36.5718L19.4723 72.8196L12.5507 65.8979ZM51.3485 98.5026L50.2556 99.5955C49.7091 100.142 48.9805 100.142 48.4341 99.5955L36.2301 87.3915C35.6836 86.8451 35.6836 86.1165 36.2301 85.57L37.1408 84.6593C37.323 85.2057 37.5051 85.3879 37.8694 85.7522L49.8913 97.774C50.4377 97.9562 50.802 98.3205 51.3485 98.5026ZM43.1518 79.0126L44.0625 78.1019C44.609 77.5554 45.3376 77.5554 45.884 78.1019L58.088 90.3059C58.6345 90.8523 58.6345 91.5809 58.088 92.1274L57.1773 93.0381C56.9951 92.4917 56.6308 92.1274 56.4487 91.9452L44.4268 79.9234C43.8804 79.3769 43.5161 79.0126 43.1518 79.0126ZM42.241 81.7449L54.2629 93.7667C54.8093 94.3132 54.8093 95.0418 54.2629 95.5882L54.0807 95.7704C53.5343 96.3168 52.8057 96.3168 52.2592 95.7704L40.2374 83.7485C39.6909 83.2021 39.6909 82.4735 40.2374 81.927L40.4195 81.7449C40.966 81.1984 41.6946 81.1984 42.241 81.7449ZM24.2082 77.5554L21.2938 74.641L57.3594 38.5755L60.2738 41.4899L24.2082 77.5554Z" fill="#748599" fill-opacity="0.5"/>
<path d="M44.2448 33.1107L22.2047 50.7792C21.6582 51.3256 21.6582 52.0542 22.0225 52.4185L27.3049 57.7009C27.8513 58.2473 28.5799 58.2473 29.1264 57.7009L48.9807 37.8466C49.5271 37.3001 49.5271 36.5715 48.9807 36.0251L45.8841 32.9286C45.5198 32.5643 44.7912 32.5643 44.2448 33.1107Z" fill="#748599" fill-opacity="0.5"/>
<path d="M21.4755 61.3443L17.4683 65.3516L19.4719 67.3552L23.4792 63.3479L21.4755 61.3443Z" fill="#748599" fill-opacity="0.5"/>
<path d="M18.1972 58.0655L14.1899 62.0728L16.1936 64.0764L20.2009 60.0691L18.1972 58.0655Z" fill="#748599" fill-opacity="0.5"/>
<path d="M158.112 153.193L142.993 168.312L144.815 170.133L159.933 155.015L158.112 153.193Z" fill="#748599" fill-opacity="0.5"/>
<path d="M136.982 157.565L139.896 160.479C140.807 161.39 142.264 161.39 143.175 160.479L150.461 153.193C151.372 152.282 151.372 150.825 150.461 149.914L147.547 147C147.911 146.271 148.093 145.361 148.275 144.45C148.275 141.536 145.725 138.986 142.629 139.168C141.172 139.168 139.714 139.896 138.621 140.989C138.257 141.353 138.075 141.536 137.893 142.082C134.978 141.718 132.428 143.904 132.064 146.818C132.064 147.182 132.064 147.547 132.064 147.911C131.518 148.093 131.335 148.275 130.971 148.639C129.878 149.732 129.15 151.19 129.15 152.647C129.15 155.561 131.335 158.111 134.432 158.293C135.343 158.476 136.071 158.111 136.982 157.565ZM131.882 152.829C131.882 152.1 132.246 151.372 132.793 150.825C133.157 150.461 133.521 150.461 133.886 150.461L135.525 150.279L134.978 148.639C134.432 147.364 135.161 145.907 136.618 145.179C137.164 144.996 137.893 144.996 138.439 145.179L140.079 145.725L140.261 144.086C140.261 143.721 140.443 143.175 140.625 142.993C141.172 142.446 141.9 142.082 142.629 142.082C143.357 142.082 144.086 142.446 144.45 142.811C144.997 143.357 145.179 143.904 145.179 144.632C145.179 145.361 144.997 145.907 144.45 146.454L143.539 147.364L147.911 151.736L141.354 158.293L136.982 153.922L136.071 154.833C135.525 155.379 134.978 155.561 134.25 155.561C133.521 155.561 132.793 155.197 132.428 154.833C132.246 154.286 131.882 153.557 131.882 152.829Z" fill="#748599" fill-opacity="0.5"/>
<path d="M140.079 122.41L110.57 151.918C108.202 154.286 108.202 158.293 110.57 160.661L143.175 193.266C145.725 195.816 150.097 195.816 152.647 193.266L181.973 163.94L179.969 161.936L150.643 191.262C149.004 192.902 146.454 192.902 144.814 191.262C143.175 189.623 143.175 187.073 144.814 185.433L174.14 156.107L140.261 122.228L140.079 122.41ZM170.315 156.29L146.089 180.515L115.853 150.279L140.079 126.053L170.315 156.29Z" fill="#748599" fill-opacity="0.5"/>
<path d="M176.144 158.476L162.483 172.137L164.304 173.958L177.966 160.297L176.144 158.476Z" fill="#748599" fill-opacity="0.5"/>
<path d="M171.332 265.355L173.7 267.723L173.7 259.708C176.614 260.437 179.347 258.433 180.075 255.519C180.44 253.697 179.893 252.058 178.436 250.601L154.574 226.739C152.389 224.553 149.11 224.553 146.924 226.739C145.467 228.196 144.92 230.2 145.649 232.021L137.817 231.839L140.185 234.207C140.731 234.754 141.277 235.664 141.095 236.575C137.27 238.214 133.992 240.4 131.077 243.315L116.505 257.886C110.859 263.533 111.041 272.458 116.505 277.923L127.616 289.034C133.263 294.681 142.188 294.499 147.653 289.034L162.225 274.462C165.139 271.548 167.507 268.087 168.964 264.444C169.875 264.626 170.786 264.808 171.332 265.355ZM145.831 287.213C141.277 291.766 133.992 291.766 129.438 287.213L118.509 276.284C113.955 271.73 113.955 264.444 118.509 259.89L133.081 245.318C135.449 242.95 138.363 240.764 141.46 239.489C141.642 240.4 142.188 241.311 143.099 241.857C144.374 243.132 146.013 243.679 147.835 243.679C148.928 243.679 149.839 243.861 150.749 244.772C151.478 245.5 151.842 246.593 151.842 247.686C151.66 251.147 154.21 254.061 157.671 254.243C157.853 254.426 158.035 254.243 158.4 254.243C159.492 254.243 160.403 254.426 161.314 255.336C162.043 256.065 162.407 257.158 162.407 258.251C162.407 260.072 162.953 261.712 164.228 262.987C164.957 263.715 165.685 264.08 166.596 264.626C165.139 267.905 163.135 270.637 160.767 273.005L146.196 287.577L145.831 287.213ZM172.789 256.611L148.746 232.568C147.653 231.475 147.835 229.835 148.746 228.925C149.839 227.832 151.478 228.014 152.389 228.925L176.432 252.968C177.525 254.061 177.343 255.701 176.432 256.611C175.522 257.522 173.882 257.34 172.789 256.611Z" fill="#748599" fill-opacity="0.5"/>
<path d="M156.214 270.273L134.902 248.961L122.698 261.165L144.01 282.477L156.214 270.273Z" fill="#748599" fill-opacity="0.5"/>
<path d="M155.175 45.5622C147.343 37.7297 134.41 37.5476 126.396 45.5622C118.381 53.5767 118.381 66.3272 126.396 74.3418C134.41 82.3563 147.161 82.3563 155.175 74.3418C163.008 66.5093 163.008 53.7589 155.175 45.5622ZM128.399 72.3381C121.66 65.5986 121.478 54.4875 128.035 47.5658C134.775 40.8263 145.886 40.6441 152.808 47.2015C152.99 47.3837 152.99 47.3837 153.172 47.5658L140.786 59.952L153.172 72.3381C146.432 79.0776 135.321 79.2598 128.399 72.3381Z" fill="#748599" fill-opacity="0.5"/>
<path d="M169.565 64.3235C171.933 63.7771 173.573 61.4091 172.844 58.859C172.297 57.2197 171.022 55.9446 169.565 55.5803C169.019 51.0266 167.197 46.655 164.465 43.1942C165.74 43.012 167.015 42.4656 167.926 41.5548C170.294 39.1869 170.476 35.3617 168.108 32.9938C165.74 30.6259 161.915 30.4437 159.547 32.8117C158.636 33.7224 157.908 35.1796 157.726 36.4546C144.611 26.9829 126.578 30.0794 117.106 43.1942C107.634 56.3089 110.731 74.3417 123.846 83.8135C136.961 93.2852 154.993 90.1887 164.465 77.074C167.197 73.2488 169.019 68.8772 169.565 64.3235ZM161.369 34.6331C162.644 33.3581 164.647 33.5403 165.922 34.8153C167.197 36.0903 167.197 38.2761 165.922 39.5512C164.647 40.8262 162.461 40.8262 161.186 39.5512C160.093 38.094 160.093 35.9082 161.369 34.6331ZM122.206 78.5311C111.824 68.5129 111.46 51.7552 121.842 41.3727C131.678 31.1723 148.072 30.808 158.454 40.4619L155.904 43.012L157.908 45.0157L160.458 42.4656C170.294 53.0302 169.565 69.788 159.001 79.624C148.436 89.0958 132.042 88.7315 122.206 78.5311Z" fill="#748599" fill-opacity="0.5"/>
</svg>
