<svg width="80" height="80" viewBox="0 0 80 80" fill="none" xmlns="http://www.w3.org/2000/svg">
<path d="M58.4615 0H21.5385C15.828 0.00610856 10.3531 2.2773 6.31522 6.31522C2.2773 10.3531 0.00610856 15.828 0 21.5385V58.4615C0.00610856 64.172 2.2773 69.6469 6.31522 73.6848C10.3531 77.7227 15.828 79.9939 21.5385 80H58.4615C64.172 79.9939 69.6469 77.7227 73.6848 73.6848C77.7227 69.6469 79.9939 64.172 80 58.4615V21.5385C79.9939 15.828 77.7227 10.3531 73.6848 6.31522C69.6469 2.2773 64.172 0.00610856 58.4615 0ZM40 58.4615C36.3487 58.4615 32.7793 57.3788 29.7433 55.3502C26.7073 53.3216 24.3411 50.4383 22.9438 47.0649C21.5465 43.6915 21.1809 39.9795 21.8932 36.3983C22.6055 32.8171 24.3638 29.5276 26.9457 26.9457C29.5276 24.3638 32.8171 22.6055 36.3983 21.8932C39.9795 21.1809 43.6915 21.5465 47.0649 22.9438C50.4383 24.3411 53.3216 26.7073 55.3502 29.7433C57.3788 32.7793 58.4615 36.3487 58.4615 40C58.4564 44.8947 56.5098 49.5876 53.0487 53.0487C49.5876 56.5098 44.8947 58.4564 40 58.4615ZM63.0769 21.5385C62.1641 21.5385 61.2718 21.2678 60.5128 20.7606C59.7538 20.2535 59.1622 19.5327 58.8129 18.6893C58.4635 17.846 58.3721 16.918 58.5502 16.0227C58.7283 15.1274 59.1679 14.305 59.8134 13.6595C60.4588 13.014 61.2812 12.5745 62.1765 12.3964C63.0718 12.2183 63.9998 12.3097 64.8432 12.659C65.6865 13.0083 66.4073 13.5999 66.9145 14.3589C67.4216 15.1179 67.6923 16.0102 67.6923 16.9231C67.6923 18.1472 67.206 19.3211 66.3405 20.1866C65.4749 21.0522 64.301 21.5385 63.0769 21.5385ZM52.3077 40C52.3077 42.4342 51.5859 44.8138 50.2335 46.8378C48.8811 48.8618 46.9589 50.4393 44.7099 51.3708C42.461 52.3024 39.9863 52.5461 37.5989 52.0712C35.2114 51.5963 33.0184 50.4241 31.2971 48.7029C29.5759 46.9816 28.4037 44.7886 27.9288 42.4011C27.4539 40.0137 27.6976 37.539 28.6292 35.2901C29.5607 33.0411 31.1382 31.1189 33.1622 29.7665C35.1862 28.4141 37.5658 27.6923 40 27.6923C43.2642 27.6923 46.3947 28.989 48.7029 31.2971C51.011 33.6053 52.3077 36.7358 52.3077 40Z" fill="white"/>
</svg>
