<svg width="20" height="34" viewBox="0 0 20 34" fill="none" xmlns="http://www.w3.org/2000/svg">
<path d="M1.02924 1.54144C-0.108265 2.67894 -0.108265 4.51644 1.02923 5.65394L12.3167 16.9998L1.00007 28.3164C0.454721 28.8618 0.148345 29.6014 0.148345 30.3727C0.148345 31.1439 0.454721 31.8836 1.00007 32.4289C1.54542 32.9743 2.28508 33.2807 3.05632 33.2807C3.82756 33.2807 4.56722 32.9743 5.11257 32.4289L18.5001 19.0414C18.7704 18.7716 18.985 18.4511 19.1313 18.0983C19.2777 17.7454 19.353 17.3672 19.353 16.9852C19.353 16.6032 19.2777 16.225 19.1313 15.8721C18.985 15.5193 18.7704 15.1988 18.5001 14.9289L5.14174 1.54144C4.87191 1.27105 4.5514 1.05654 4.19856 0.910175C3.84572 0.763813 3.46748 0.688476 3.08549 0.688476C2.7035 0.688476 2.32525 0.763812 1.97241 0.910175C1.61958 1.05654 1.29907 1.27105 1.02924 1.54144Z" fill="#748599"/>
</svg>
