<svg width="193" height="97" viewBox="0 0 193 97" fill="none" xmlns="http://www.w3.org/2000/svg">
<path d="M96.8293 47.6133C95.3996 47.0508 94.4152 46.2891 93.8762 45.3281C93.3371 44.3672 93.1144 43.3008 93.2082 42.1289C93.3254 40.9336 93.7004 39.668 94.3332 38.332C94.9894 36.9727 95.7863 35.6133 96.7238 34.2539C97.6848 32.8945 98.7394 31.5703 99.8879 30.2812C101.036 28.9922 102.173 27.8086 103.298 26.7305C104.423 25.6523 105.478 24.7148 106.462 23.918C107.446 23.1211 108.243 22.5352 108.853 22.1602C109.696 21.6445 110.4 21.3984 110.962 21.4219C111.525 21.4219 111.97 21.5977 112.298 21.9492C112.65 22.2773 112.884 22.7461 113.001 23.3555C113.142 23.9414 113.2 24.5742 113.177 25.2539C113.177 25.9102 113.107 26.5781 112.966 27.2578C112.849 27.9141 112.685 28.4883 112.474 28.9805C112.286 29.4727 112.075 29.8359 111.841 30.0703C111.63 30.3047 111.419 30.3164 111.208 30.1055C111.185 29.918 111.208 29.6367 111.279 29.2617C111.349 28.8633 111.431 28.418 111.525 27.9258C111.642 27.4336 111.747 26.9297 111.841 26.4141C111.935 25.8984 111.993 25.4297 112.017 25.0078C112.064 24.5625 112.052 24.1875 111.982 23.8828C111.935 23.5781 111.806 23.4023 111.595 23.3555C110.775 23.1445 109.79 23.3438 108.642 23.9531C107.517 24.5391 106.333 25.3945 105.091 26.5195C103.872 27.6211 102.654 28.9102 101.435 30.3867C100.239 31.8398 99.1496 33.3398 98.1652 34.8867C97.1808 36.4336 96.3723 37.9453 95.7394 39.4219C95.1066 40.875 94.7433 42.1641 94.6496 43.2891C94.5793 44.3906 94.8254 45.2461 95.3879 45.8555C95.9738 46.4414 96.9933 46.6289 98.4465 46.418C99.7824 46.2305 101.013 45.7617 102.138 45.0117C103.286 44.2383 104.388 43.3945 105.443 42.4805C106.521 41.543 107.587 40.6289 108.642 39.7383C109.696 38.8242 110.798 38.1328 111.946 37.6641C112.368 37.5 112.696 37.5586 112.931 37.8398C113.189 38.1211 113.259 38.4609 113.142 38.8594C113.001 39.2578 112.579 39.7852 111.876 40.4414C111.196 41.0977 110.341 41.7891 109.31 42.5156C108.302 43.2188 107.189 43.9336 105.97 44.6602C104.751 45.3633 103.556 45.9727 102.384 46.4883C101.236 47.0039 100.157 47.3789 99.1496 47.6133C98.1652 47.8477 97.3918 47.8477 96.8293 47.6133ZM118.099 47.6133C117.114 47.2148 116.493 46.6172 116.236 45.8203C116.001 45.0234 116.013 44.1445 116.271 43.1836C116.529 42.1992 116.974 41.1914 117.607 40.1602C118.239 39.1055 118.943 38.1445 119.716 37.2773C120.489 36.4102 121.263 35.6836 122.036 35.0977C122.833 34.4883 123.513 34.1484 124.075 34.0781C125.529 33.8906 126.665 33.9961 127.486 34.3945C128.329 34.7695 128.904 35.3203 129.208 36.0469C129.513 36.7734 129.595 37.6289 129.454 38.6133C129.314 39.5742 128.997 40.5469 128.505 41.5312C128.036 42.5156 127.415 43.4648 126.642 44.3789C125.892 45.293 125.048 46.0664 124.111 46.6992C123.196 47.3086 122.224 47.7188 121.193 47.9297C120.161 48.1172 119.13 48.0117 118.099 47.6133ZM117.712 45.6094C117.9 46.3594 118.298 46.7812 118.907 46.875C119.517 46.9453 120.22 46.793 121.017 46.418C121.837 46.0195 122.693 45.457 123.583 44.7305C124.474 43.9805 125.282 43.1719 126.009 42.3047C126.759 41.4375 127.368 40.5703 127.837 39.7031C128.329 38.8125 128.564 38.0391 128.54 37.3828C128.54 36.7266 128.224 36.2344 127.591 35.9062C126.982 35.5547 125.95 35.4844 124.497 35.6953C124.169 36 123.747 36.375 123.232 36.8203C122.716 37.2422 122.177 37.7109 121.614 38.2266C121.075 38.7422 120.536 39.3047 119.997 39.9141C119.458 40.5 118.989 41.1094 118.591 41.7422C118.193 42.375 117.9 43.0195 117.712 43.6758C117.548 44.332 117.548 44.9766 117.712 45.6094ZM131.845 47.6133C131.4 47.3555 131.236 46.9922 131.353 46.5234C131.493 46.0547 131.833 45.5273 132.372 44.9414C132.911 44.332 133.591 43.6875 134.411 43.0078C135.255 42.3047 136.157 41.5781 137.118 40.8281C138.103 40.0781 139.099 39.3281 140.107 38.5781C141.114 37.8047 142.052 37.0547 142.919 36.3281C143.81 35.6016 144.571 34.9102 145.204 34.2539C145.861 33.5977 146.306 33.0117 146.54 32.4961C146.493 32.1914 146.259 32.0273 145.837 32.0039C145.415 31.957 144.911 31.9805 144.325 32.0742C143.739 32.1445 143.118 32.25 142.462 32.3906C141.806 32.5312 141.22 32.6133 140.704 32.6367C140.189 32.6367 139.79 32.5547 139.509 32.3906C139.251 32.2031 139.204 31.8516 139.368 31.3359C139.392 31.2891 139.638 31.1953 140.107 31.0547C140.599 30.8906 141.208 30.7266 141.935 30.5625C142.661 30.3984 143.446 30.2578 144.29 30.1406C145.134 30.0234 145.919 29.9766 146.646 30C147.372 30 147.982 30.1055 148.474 30.3164C148.989 30.5273 149.259 30.8789 149.282 31.3711C149.329 31.8633 149.083 32.5195 148.544 33.3398C148.005 34.1602 147.068 35.2031 145.732 36.4688C145.661 36.5625 145.462 36.75 145.134 37.0312C144.829 37.3125 144.478 37.6289 144.079 37.9805C143.704 38.3086 143.329 38.6367 142.954 38.9648C142.603 39.2695 142.345 39.4922 142.181 39.6328C142.017 39.7734 141.724 40.0078 141.302 40.3359C140.88 40.6406 140.4 41.0039 139.861 41.4258C139.345 41.8242 138.806 42.2461 138.243 42.6914C137.681 43.1367 137.177 43.5586 136.732 43.957C136.286 44.3555 135.935 44.707 135.677 45.0117C135.419 45.293 135.337 45.4922 135.431 45.6094C136.415 45.7031 137.4 45.7031 138.384 45.6094C139.392 45.4922 140.388 45.3633 141.372 45.2227C142.357 45.082 143.341 44.9648 144.325 44.8711C145.333 44.7539 146.341 44.7422 147.349 44.8359C147.583 44.9766 147.806 45.1992 148.017 45.5039C148.251 45.7852 148.286 46.0898 148.122 46.418C147.513 46.4648 146.751 46.5703 145.837 46.7344C144.946 46.875 143.974 47.0391 142.919 47.2266C141.888 47.4141 140.821 47.6016 139.72 47.7891C138.618 47.9531 137.564 48.0703 136.556 48.1406C135.571 48.2109 134.657 48.2109 133.814 48.1406C132.993 48.0938 132.337 47.918 131.845 47.6133ZM144.361 61.5C144.15 61.1719 144.161 60.6562 144.396 59.9531C144.607 59.2734 144.923 58.5586 145.345 57.8086C145.743 57.082 146.165 56.3906 146.611 55.7344C147.032 55.1016 147.349 54.6445 147.56 54.3633C147.747 54.1055 148.04 53.7188 148.439 53.2031C148.814 52.6875 149.247 52.1016 149.739 51.4453C150.232 50.7891 150.747 50.0977 151.286 49.3711C151.849 48.6445 152.376 47.9648 152.868 47.332C153.361 46.6758 153.806 46.0898 154.204 45.5742C154.603 45.0586 154.896 44.6719 155.083 44.4141C155.271 44.2031 155.271 43.875 155.083 43.4297C154.896 42.9844 154.603 42.4688 154.204 41.8828C153.829 41.2734 153.396 40.6172 152.904 39.9141C152.435 39.1875 152.001 38.4609 151.603 37.7344C151.228 36.9844 150.935 36.2461 150.724 35.5195C150.536 34.793 150.536 34.1133 150.724 33.4805C150.982 33.293 151.263 33.4102 151.568 33.832C151.872 34.2305 152.189 34.793 152.517 35.5195C152.868 36.2227 153.232 37.0078 153.607 37.875C153.982 38.7188 154.345 39.4922 154.696 40.1953C155.048 40.875 155.388 41.4141 155.716 41.8125C156.068 42.2109 156.396 42.293 156.7 42.0586C157.31 41.6133 157.907 41.0508 158.493 40.3711C159.079 39.668 159.642 38.9414 160.181 38.1914C160.72 37.4414 161.224 36.7148 161.693 36.0117C162.185 35.2852 162.642 34.6523 163.064 34.1133C163.228 33.9023 163.38 33.7617 163.521 33.6914C163.685 33.5977 163.931 33.6094 164.259 33.7266C164.517 33.8203 164.47 34.2305 164.118 34.957C163.767 35.6836 163.216 36.6211 162.466 37.7695C161.716 38.918 160.814 40.2305 159.759 41.707C158.728 43.1602 157.626 44.6836 156.454 46.2773C155.306 47.8477 154.146 49.418 152.974 50.9883C151.825 52.5586 150.771 54.0117 149.81 55.3477C148.825 56.707 147.993 57.8906 147.314 58.8984C146.611 59.9297 146.154 60.6797 145.943 61.1484C145.849 61.3594 145.755 61.5703 145.661 61.7812C145.544 61.9922 145.392 62.168 145.204 62.3086C145.157 62.2852 145.099 62.2383 145.029 62.168C144.935 62.0977 144.853 62.0156 144.782 61.9219C144.689 61.8516 144.607 61.7695 144.536 61.6758C144.443 61.6055 144.384 61.5469 144.361 61.5Z" fill="white"/>
<path d="M109.88 93.4415C105.059 93.4415 100.984 91.9055 97.656 88.8335C94.2 85.6761 92.472 81.7295 92.472 76.9935C92.472 70.1241 95.3733 64.3641 101.176 59.7135C106.595 55.3188 112.803 53.1215 119.8 53.1215C122.232 53.1215 124.195 53.6761 125.688 54.7855C126.797 52.6095 127.587 51.5215 128.056 51.5215C128.184 51.5215 128.248 51.5855 128.248 51.7135C128.248 51.8841 127.992 52.4601 127.48 53.4415C127.309 53.7401 127.139 54.0601 126.968 54.4015C126.797 54.7001 126.627 55.0201 126.456 55.3615C127.565 56.4708 128.12 57.5801 128.12 58.6895C128.12 59.0735 128.013 59.3081 127.8 59.3935L125.88 57.0895C125.667 57.9428 125.475 58.9455 125.304 60.0975C125.176 61.2068 125.091 62.4655 125.048 63.8735C125.048 64.1721 125.005 64.5988 124.92 65.1535C124.877 65.6655 124.813 66.3268 124.728 67.1375C124.557 68.7161 124.024 69.5055 123.128 69.5055C122.445 69.5055 122.104 68.6308 122.104 66.8815C122.104 64.4068 123.043 60.9295 124.92 56.4495C123.555 55.7241 121.869 55.3615 119.864 55.3615C113.763 55.3615 108.109 57.7295 102.904 62.4655C97.528 67.3295 94.84 72.7695 94.84 78.7855C94.84 83.2655 96.44 86.6575 99.64 88.9615C102.371 90.9241 106.083 91.9055 110.776 91.9055C114.744 91.9055 119.139 90.4548 123.96 87.5535C128.568 84.8228 132.045 81.7081 134.392 78.2095C134.563 77.9108 134.755 77.7615 134.968 77.7615C135.267 77.7615 135.416 77.9748 135.416 78.4015C135.416 78.5295 135.352 78.6575 135.224 78.7855C132.365 82.7108 128.653 86.0815 124.088 88.8975C119.053 91.9268 114.317 93.4415 109.88 93.4415ZM135.416 89.7295C133.411 89.7295 132.408 87.7241 132.408 83.7135C132.408 82.2201 132.536 80.7268 132.792 79.2335C133.048 77.7401 133.411 76.2468 133.88 74.7535C134.264 73.5588 134.925 72.5348 135.864 71.6815C136.845 70.7855 137.933 70.3375 139.128 70.3375C139.555 70.3375 139.789 70.4228 139.832 70.5935C139.747 70.7641 139.64 70.8068 139.512 70.7215C137.805 71.1481 136.525 72.8975 135.672 75.9695C135.373 77.0788 135.139 78.2308 134.968 79.4255C134.84 80.6201 134.776 81.8575 134.776 83.1375C134.776 86.2521 135.288 87.8095 136.312 87.8095C137.72 87.8095 138.808 86.2735 139.576 83.2015C140.088 81.0681 140.344 78.9135 140.344 76.7375C140.344 75.3295 140.109 74.2628 139.64 73.5375C139.171 72.7695 138.936 72.4495 138.936 72.5775C138.936 72.2361 139.171 72.0655 139.64 72.0655C140.92 72.0655 141.56 73.6655 141.56 76.8655C141.56 79.2975 141.091 81.8361 140.152 84.4815C138.957 87.9801 137.379 89.7295 135.416 89.7295ZM147.041 89.7295C145.036 89.7295 144.033 87.7241 144.033 83.7135C144.033 82.2201 144.161 80.7268 144.417 79.2335C144.673 77.7401 145.036 76.2468 145.505 74.7535C145.889 73.5588 146.55 72.5348 147.489 71.6815C148.47 70.7855 149.558 70.3375 150.753 70.3375C151.18 70.3375 151.414 70.4228 151.457 70.5935C151.372 70.7641 151.265 70.8068 151.137 70.7215C149.43 71.1481 148.15 72.8975 147.297 75.9695C146.998 77.0788 146.764 78.2308 146.593 79.4255C146.465 80.6201 146.401 81.8575 146.401 83.1375C146.401 86.2521 146.913 87.8095 147.937 87.8095C149.345 87.8095 150.433 86.2735 151.201 83.2015C151.713 81.0681 151.969 78.9135 151.969 76.7375C151.969 75.3295 151.734 74.2628 151.265 73.5375C150.796 72.7695 150.561 72.4495 150.561 72.5775C150.561 72.2361 150.796 72.0655 151.265 72.0655C152.545 72.0655 153.185 73.6655 153.185 76.8655C153.185 79.2975 152.716 81.8361 151.777 84.4815C150.582 87.9801 149.004 89.7295 147.041 89.7295ZM157.962 92.9295C157.109 92.0761 156.682 89.7508 156.682 85.9535C156.682 83.0948 156.938 78.8281 157.45 73.1535C157.962 67.4361 158.218 63.1695 158.218 60.3535C158.218 56.0868 157.386 53.9535 155.722 53.9535C155.338 53.9535 154.954 54.0175 154.57 54.1455C154.527 54.1881 154.463 54.2095 154.378 54.2095C154.207 54.2095 154.122 54.1028 154.122 53.8895C154.122 53.5908 154.869 53.1855 156.362 52.6735C157.77 52.1188 158.751 51.8415 159.306 51.8415C160.287 51.8415 160.778 52.7161 160.778 54.4655C160.778 55.4041 160.714 56.6628 160.586 58.2415C160.501 59.8201 160.351 61.6975 160.138 63.8735C159.114 74.2841 158.602 80.8548 158.602 83.5855C158.602 84.5668 158.602 85.3561 158.602 85.9535C158.645 86.5081 158.687 86.8708 158.73 87.0415C159.114 86.2735 160.01 84.6735 161.418 82.2415C160.735 79.8948 160.394 78.2948 160.394 77.4415C160.394 76.0761 161.247 74.8601 162.954 73.7935C163.082 73.7081 163.487 73.4521 164.17 73.0255C164.895 72.5988 165.877 72.0228 167.114 71.2975C167.157 71.1268 167.391 70.8068 167.818 70.3375C168.757 69.6548 169.631 69.3135 170.442 69.3135C171.21 69.3135 171.594 69.8468 171.594 70.9135C171.594 71.5961 171.381 72.1508 170.954 72.5775L166.666 76.8655C165.855 77.6761 165.13 78.4868 164.49 79.2975C163.85 80.0655 163.295 80.7908 162.826 81.4735C165.045 85.6121 167.029 87.6815 168.778 87.6815C169.759 87.6815 170.762 87.1055 171.786 85.9535L173.322 84.1615C173.45 84.1615 173.514 84.2468 173.514 84.4175C173.514 85.1428 172.703 86.2521 171.082 87.7455C169.503 89.1961 168.33 89.9215 167.562 89.9215C166.154 89.9215 164.938 89.1108 163.914 87.4895L161.866 83.2015C160.543 86.2735 159.882 88.5775 159.882 90.1135C159.882 90.2415 159.903 90.4121 159.946 90.6255C159.989 90.8815 160.01 91.0735 160.01 91.2015C160.01 91.8415 159.327 92.4175 157.962 92.9295ZM162.314 80.5135C164.063 78.5935 166.602 75.7348 169.93 71.9375C164.725 74.4548 162.122 76.8655 162.122 79.1695C162.122 79.5961 162.186 80.0441 162.314 80.5135ZM178.253 92.0975C176.247 92.0975 174.882 91.1588 174.157 89.2815C173.986 88.8975 173.901 88.5775 173.901 88.3215C173.901 88.0228 174.05 87.8735 174.349 87.8735C174.519 87.8735 174.647 87.9801 174.733 88.1935C175.33 90.0708 176.418 91.0095 177.997 91.0095C179.703 91.0095 180.557 90.1775 180.557 88.5135C180.557 87.5748 179.81 85.9748 178.317 83.7135C176.823 81.4521 176.077 79.5961 176.077 78.1455C176.077 76.2255 176.973 74.2841 178.765 72.3215C180.557 70.3588 182.391 69.3775 184.269 69.3775C185.677 69.3775 186.381 70.0175 186.381 71.2975C186.381 71.7241 186.061 72.3641 185.421 73.2175C184.823 74.0708 184.354 74.4975 184.013 74.4975C183.97 74.4548 183.949 74.4121 183.949 74.3695C183.949 74.3268 184.119 74.0495 184.461 73.5375C184.802 73.0255 184.973 72.6201 184.973 72.3215C184.973 72.0228 184.759 71.8735 184.333 71.8735C182.967 71.8735 181.538 72.5561 180.045 73.9215C178.594 75.2441 177.869 76.6095 177.869 78.0175C177.869 79.2975 178.658 80.9828 180.237 83.0735C181.858 85.2068 182.669 86.9135 182.669 88.1935C182.669 89.3455 182.221 90.2841 181.325 91.0095C180.471 91.7348 179.447 92.0975 178.253 92.0975Z" fill="white"/>
<path fill-rule="evenodd" clip-rule="evenodd" d="M59.9325 87.3085C70.3887 89.964 81.7438 79.6926 85.2947 64.3666C88.8457 49.0406 83.248 34.4637 72.7918 31.8082C62.3356 29.1527 50.9806 39.4241 47.4296 54.7501C43.8786 70.0761 49.4764 84.653 59.9325 87.3085ZM58.7189 80.7055C66.1876 82.6023 74.5333 74.2514 77.3596 62.0531C80.1859 49.8549 76.4225 38.4286 68.9538 36.5318C61.4851 34.635 53.1394 42.986 50.3131 55.1842C47.4868 67.3825 51.2502 78.8087 58.7189 80.7055Z" fill="white"/>
<path d="M0 23C0 21.8954 0.895431 21 2 21H58C59.1046 21 60 21.8954 60 23V91C60 93.7614 57.7614 96 55 96H5C2.23858 96 0 93.7614 0 91V23Z" fill="white"/>
<path fill-rule="evenodd" clip-rule="evenodd" d="M45.811 61.6235C47.8983 62.1468 49.0192 64.3625 48.3357 66.4029L43.4498 80.9891C42.7834 82.9785 40.6483 84.0482 38.5981 83.6027C32.7839 82.3391 26.7521 82.3391 20.9379 83.6027C18.8877 84.0482 16.7526 82.9785 16.0862 80.9891L11.2003 66.4029C10.5168 64.3625 11.6377 62.1468 13.725 61.6235C24.2467 58.9855 35.2893 58.9855 45.811 61.6235ZM29.768 78.8788C30.4762 78.8788 31.0503 76.0084 31.0503 72.4675C31.0503 68.9267 30.4762 66.0563 29.768 66.0563C29.0599 66.0563 28.4858 68.9267 28.4858 72.4675C28.4858 76.0084 29.0599 78.8788 29.768 78.8788ZM24.1468 73.6302C25.9172 76.6966 26.8552 79.4695 26.2419 79.8236C25.6286 80.1777 23.6963 77.9789 21.9258 74.9124C20.1554 71.846 19.2174 69.0731 19.8307 68.719C20.444 68.3649 22.3764 70.5637 24.1468 73.6302ZM33.2943 79.8236C33.9076 80.1777 35.84 77.9789 37.6104 74.9124C39.3808 71.846 40.3189 69.0731 39.7056 68.719C39.0923 68.3649 37.1599 70.5637 35.3895 73.6302C33.6191 76.6966 32.681 79.4695 33.2943 79.8236Z" fill="#E57B2E"/>
<path fill-rule="evenodd" clip-rule="evenodd" d="M24.7459 44.1654C28.6408 44.1654 31.7983 41.008 31.7983 37.113C31.7983 35.9956 31.5384 34.9389 31.0758 34C34.3987 34.5182 36.9273 37.15 36.9273 40.3187C36.9273 43.8595 33.7698 46.7299 29.8749 46.7299C27.558 46.7299 25.502 45.7142 24.2164 44.1458C24.3912 44.1588 24.5678 44.1654 24.7459 44.1654Z" fill="#D4E3EC"/>
<path fill-rule="evenodd" clip-rule="evenodd" d="M36.9273 46.7299C37.6355 46.7299 38.2096 45.2947 38.2096 43.5243C38.2096 41.7539 37.6355 40.3187 36.9273 40.3187C36.883 40.3187 36.8393 40.3243 36.7962 40.3352C36.8732 40.3675 36.9273 40.4436 36.9273 40.5324C36.9273 41.8307 35.8748 42.8832 34.5765 42.8832L24.1048 42.8832L24.1048 42.8832C23.3966 42.8832 22.8225 44.3184 22.8225 46.0888C22.8225 47.8592 23.3966 49.2944 24.1048 49.2944H24.1048C24.1048 47.8781 25.2529 46.7299 26.6693 46.7299H36.9273V49.2944L36.9273 49.2944L36.9273 46.7299Z" fill="#FFBF46"/>
<path fill-rule="evenodd" clip-rule="evenodd" d="M38.0493 43.475C38.0493 45.2726 36.592 46.7299 34.7943 46.7299L21.7006 46.7299L21.7006 46.7299C20.1957 46.7299 18.9758 48.7392 18.9758 51.2178C18.9758 53.6964 20.1957 55.7057 21.7006 55.7057C21.7006 53.5812 23.4228 51.8589 25.5473 51.8589H38.0493L38.0493 55.7057V51.8589C39.5541 51.8589 40.774 49.8496 40.774 47.3711C40.774 44.8925 39.5541 42.8832 38.0493 42.8832C37.9227 42.8832 37.7981 42.8974 37.6762 42.9249C37.8948 43.0119 38.0493 43.2254 38.0493 43.475Z" fill="#D4E3EC"/>
<path fill-rule="evenodd" clip-rule="evenodd" d="M40.774 58.2702C42.8985 58.2702 44.6208 55.6868 44.6208 52.5001C44.6208 49.3133 42.8985 46.7299 40.774 46.7299C40.6008 46.7299 40.4303 46.7471 40.2631 46.7804C40.5616 46.8929 40.774 47.1811 40.774 47.519C40.774 49.9159 38.831 51.8589 36.4341 51.8589L18.9757 51.8589V51.8589C16.1431 51.8589 13.8467 54.4423 13.8467 57.6291C13.8467 60.8158 16.1431 63.3992 18.9757 63.3992C18.9758 60.5665 21.2721 58.2702 24.1048 58.2702L40.774 58.2702Z" fill="#FFBF46"/>
<path fill-rule="evenodd" clip-rule="evenodd" d="M44.6208 52.3932C44.6208 55.639 41.9896 58.2702 38.7438 58.2702L16.4113 58.2702V55.7057H16.4113V58.2702C12.8704 58.2702 10 60.8536 10 64.0403C10 67.2271 12.8704 69.8105 16.4113 69.8105C16.4113 66.9778 18.7076 64.6815 21.5403 64.6815L44.6208 64.6815C47.4535 64.6815 49.7498 61.811 49.7498 58.2702C49.7498 54.7294 47.4535 51.8589 44.6208 51.8589C44.4883 51.8589 44.3569 51.8652 44.2269 51.8776C44.4539 51.9392 44.6208 52.1467 44.6208 52.3932Z" fill="#D4E3EC"/>
<path d="M15.1647 1C21.7556 9.23529 7.91487 7.03922 15.1647 15" stroke="white" stroke-width="2" stroke-linecap="round"/>
<path d="M30.1647 1C36.7556 9.23529 22.9149 7.03922 30.1647 15" stroke="white" stroke-width="2" stroke-linecap="round"/>
<path d="M45.1647 1C51.7556 9.23529 37.9149 7.03922 45.1647 15" stroke="white" stroke-width="2" stroke-linecap="round"/>
</svg>
