<svg width="80" height="80" viewBox="0 0 80 80" fill="none" xmlns="http://www.w3.org/2000/svg">
<path d="M48.7665 8.75223C48.7665 3.94709 44.8481 0 40.0143 0C35.1805 0 31.2335 3.94709 31.2621 8.75223V31.2621H8.75223C3.94709 31.2621 0 35.1805 0 40.0143C0 44.8194 3.94709 48.7665 8.75223 48.7665H31.2621V71.2478C31.2621 76.0529 35.1805 80 40.0143 80C44.8194 80 48.7665 76.0815 48.7665 71.2478V48.7665H71.2478C76.0529 48.7665 80 44.8481 80 40.0143C80 35.2092 76.0815 31.2621 71.2478 31.2621H48.7665V8.75223Z" fill="#FFBF46"/>
</svg>
