<svg width="80" height="80" viewBox="0 0 80 80" fill="none" xmlns="http://www.w3.org/2000/svg">
<path d="M57.1429 50.2857L80 73.1429L73.1429 80L50.2857 57.1429V53.5314L49.0514 52.2514C43.6755 56.8863 36.8123 59.4336 29.7143 59.4286C21.8336 59.4286 14.2756 56.298 8.70311 50.7255C3.1306 45.153 0 37.595 0 29.7143C0 21.8336 3.1306 14.2756 8.70311 8.70311C14.2756 3.1306 21.8336 0 29.7143 0C37.595 0 45.153 3.1306 50.7255 8.70311C56.298 14.2756 59.4286 21.8336 59.4286 29.7143C59.4286 37.0743 56.7314 43.84 52.2514 49.0514L53.5314 50.2857H57.1429ZM29.7143 6.85714L27.2 6.99429C26.1029 9.37143 24.4114 13.3943 23.1771 18.2857H36.2514C35.0171 13.3943 33.3257 9.37143 32.2286 6.99429C31.4057 6.85714 30.5829 6.85714 29.7143 6.85714ZM49.5086 18.2857C46.79 13.5296 42.4361 9.92305 37.2571 8.13714C38.3543 10.56 39.7714 14.08 40.8229 18.2857H49.5086ZM9.92 18.2857H18.6057C19.6571 14.08 21.0743 10.56 22.1714 8.13714C16.9924 9.92305 12.6386 13.5296 9.92 18.2857ZM6.85714 29.7143C6.85714 32 7.22286 34.4229 7.90857 36.5714H17.6914L17.1429 29.7143L17.6914 22.8571H7.90857C7.22286 25.0057 6.85714 27.4286 6.85714 29.7143ZM51.52 36.5714C52.2057 34.4229 52.5714 32 52.5714 29.7143C52.5714 27.4286 52.2057 25.0057 51.52 22.8571H41.7371C42.4651 27.3996 42.4651 32.029 41.7371 36.5714H51.52ZM22.2629 22.8571L21.7143 29.7143L22.2629 36.5714H37.1657C37.8936 32.029 37.8936 27.3996 37.1657 22.8571H22.2629ZM29.7143 52.5714C30.5371 52.5714 31.36 52.5714 32.1371 52.4343C33.28 50.0571 35.0171 46.0343 36.2514 41.1429H23.1771C24.4114 46.0343 26.1486 50.0571 27.2914 52.4343L29.7143 52.5714ZM49.5086 41.1429H40.8229C39.7714 45.3486 38.3543 48.8686 37.2571 51.2914C42.4361 49.5055 46.79 45.899 49.5086 41.1429ZM9.92 41.1429C12.6386 45.899 16.9924 49.5055 22.1714 51.2914C21.0743 48.8686 19.6571 45.3486 18.6057 41.1429H9.92Z" fill="#292F36"/>
</svg>
