<svg width="40" height="34" viewBox="0 0 40 34" fill="none" xmlns="http://www.w3.org/2000/svg">
<path d="M38.3458 32.4586C39.4833 31.3211 39.4833 29.4836 38.3458 28.3461L27.0583 17.0002L38.3749 5.68357C38.9203 5.13822 39.2267 4.39857 39.2267 3.62732C39.2267 2.85608 38.9203 2.11642 38.3749 1.57107C37.8296 1.02572 37.0899 0.719346 36.3187 0.719346C35.5474 0.719346 34.8078 1.02572 34.2624 1.57107L20.8749 14.9586C20.6045 15.2284 20.39 15.5489 20.2437 15.9017C20.0973 16.2546 20.022 16.6328 20.022 17.0148C20.022 17.3968 20.0973 17.775 20.2437 18.1279C20.39 18.4807 20.6045 18.8012 20.8749 19.0711L34.2333 32.4586C34.5031 32.7289 34.8236 32.9435 35.1764 33.0898C35.5293 33.2362 35.9075 33.3115 36.2895 33.3115C36.6715 33.3115 37.0497 33.2362 37.4026 33.0898C37.7554 32.9435 38.0759 32.7289 38.3458 32.4586Z" fill="#748599"/>
<path d="M19.1251 32.4586C20.2626 31.3211 20.2626 29.4836 19.1251 28.3461L7.83756 17.0002L19.1542 5.68357C19.6996 5.13822 20.006 4.39857 20.006 3.62732C20.006 2.85608 19.6996 2.11642 19.1542 1.57107C18.6089 1.02572 17.8692 0.719346 17.098 0.719346C16.3267 0.719346 15.5871 1.02572 15.0417 1.57107L1.65423 14.9586C1.38385 15.2284 1.16933 15.5489 1.02297 15.9017C0.876608 16.2546 0.80127 16.6328 0.80127 17.0148C0.80127 17.3968 0.876608 17.775 1.02297 18.1279C1.16933 18.4807 1.38385 18.8012 1.65423 19.0711L15.0126 32.4586C15.2824 32.7289 15.6029 32.9435 15.9557 33.0898C16.3086 33.2362 16.6868 33.3115 17.0688 33.3115C17.4508 33.3115 17.829 33.2362 18.1819 33.0898C18.5347 32.9435 18.8552 32.7289 19.1251 32.4586Z" fill="#748599"/>
</svg>
