<svg width="80" height="80" viewBox="0 0 80 80" fill="none" xmlns="http://www.w3.org/2000/svg">
<path d="M40 0C32.0888 0 24.3552 2.34596 17.7772 6.74121C11.1992 11.1365 6.07234 17.3836 3.04484 24.6927C0.0173307 32.0017 -0.774802 40.0444 0.768607 47.8036C2.31202 55.5628 6.12164 62.6902 11.7157 68.2843C17.3098 73.8784 24.4372 77.688 32.1964 79.2314C39.9556 80.7748 47.9983 79.9827 55.3073 76.9552C62.6164 73.9277 68.8635 68.8008 73.2588 62.2228C77.654 55.6448 80 47.9112 80 40C79.9875 29.3952 75.7693 19.2282 68.2705 11.7295C60.7718 4.23073 50.6048 0.0124543 40 0ZM17.8196 67.451C20.1208 63.6246 23.3727 60.4585 27.2593 58.2606C31.1459 56.0626 35.535 54.9075 40 54.9075C44.4651 54.9075 48.8542 56.0626 52.7408 58.2606C56.6274 60.4585 59.8793 63.6246 62.1804 67.451C55.9073 72.5378 48.0764 75.3139 40 75.3139C31.9236 75.3139 24.0927 72.5378 17.8196 67.451ZM26.6667 36.8627C26.6667 34.2257 27.4487 31.6478 28.9137 29.4551C30.3788 27.2625 32.4612 25.5535 34.8976 24.5443C37.3339 23.5352 40.0148 23.2711 42.6012 23.7856C45.1876 24.3001 47.5634 25.5699 49.4281 27.4346C51.2928 29.2993 52.5627 31.6751 53.0771 34.2615C53.5916 36.8479 53.3276 39.5288 52.3184 41.9652C51.3092 44.4015 49.6003 46.4839 47.4076 47.949C45.215 49.4141 42.6371 50.1961 40 50.1961C36.4638 50.1961 33.0724 48.7913 30.5719 46.2908C28.0714 43.7903 26.6667 40.399 26.6667 36.8627ZM65.6902 64.1725C61.9932 58.4241 56.4672 54.0889 50.0039 51.8667C53.2268 49.72 55.6734 46.5933 56.9819 42.9488C58.2905 39.3043 58.3916 35.3355 57.2702 31.6291C56.1489 27.9227 53.8646 24.6755 50.7552 22.3676C47.6458 20.0597 43.8762 18.8137 40.0039 18.8137C36.1316 18.8137 32.3621 20.0597 29.2527 22.3676C26.1432 24.6755 23.859 27.9227 22.7376 31.6291C21.6163 35.3355 21.7174 39.3043 23.0259 42.9488C24.3345 46.5933 26.7811 49.72 30.0039 51.8667C23.5407 54.0889 18.0146 58.4241 14.3177 64.1725C9.5915 59.1572 6.43698 52.8679 5.24331 46.0808C4.04965 39.2936 4.86905 32.3055 7.60043 25.9785C10.3318 19.6516 14.8557 14.2627 20.6138 10.4767C26.372 6.69072 33.1126 4.67326 40.0039 4.67326C46.8953 4.67326 53.6358 6.69072 59.394 10.4767C65.1522 14.2627 69.676 19.6516 72.4074 25.9785C75.1388 32.3055 75.9582 39.2936 74.7645 46.0808C73.5709 52.8679 70.4164 59.1572 65.6902 64.1725Z" fill="#FFBF46"/>
</svg>
